{
  "title": "Fifty Shades of Grey 2015 1080p HDRip HC x264 AAC-CPG",
  "uid": 11724937,
  "size": 2600263190,
  "categoryP": "video",
  "categoryS": "hd___movies",
  "magnet": "?xt=urn:btih:3219cea93c91b8a15996949b8dd7763a667b40ef&amp;dn=Fifty+Shades+of+Grey+2015+1080p+HDRip+HC+x264+AAC-CPG&amp;tr=udp%3A%2F%2Ftracker.openbittorrent.com%3A80&amp;tr=udp%3A%2F%2Fopen.demonii.com%3A1337&amp;tr=udp%3A%2F%2Ftracker.coppersurfer.tk%3A6969&amp;tr=udp%3A%2F%2Fexodus.desync.com%3A6969",
  "seeders": 750,
  "leechers": 87,
  "uploader": "HeroMaster",
  "files": 2,
  "time": 1425008100,
  "description": "Fifty.Shades.of.Grey.1080p.HC.HDRip.x264.AAC.CPG\n\nFile: Fifty.Shades.of.Grey.1080p.HC.HDRip.x264.AAC.CPG.mp4\nSize: 2583505847 bytes (2.41 GiB), \nDuration: 02:00:03, \nAvg.bitrate: 2869 kb/s\nAudio: aac, 48000 Hz, stereo (und)\nVideo: h264, yuv420p, 1920x800, 23.98 fps(r) (und\n\nIMDB:http://www.imdb.com/title/tt2322441\n\nRatings: 4.0/10 from 51,154 users   Metascore: 47/100\nReviews: 448 user | 186 critic | 41 from Metacritic.com \n\n\nFormat                                   : MPEG-4\nFormat profile                           : Base Media\nCodec ID                                 : isom\nFile size                                : 2.41 GiB\nDuration                                 : 2h 0mn\nOverall bit rate                         : 2 869 Kbps\n\n\nVideo\n\nID                                       : 1\nFormat                                   : AVC\nFormat/Info                              : Advanced Video Codec\nFormat profile                           : &lt;a class=&quot;__cf_email__&quot; href=&quot;/cdn-cgi/l/email-protection&quot; data-cfemail=&quot;f1b9989699b1bdc5dfc1&quot;&gt;[email&amp;#160;protected]&lt;/a&gt;&lt;script cf-hash='f9e31' type=&quot;text/javascript&quot;&gt;\n/* &lt;![CDATA[ */!function(){try{var t=&quot;currentScript&quot;in document?document.currentScript:function(){for(var t=document.getElementsByTagName(&quot;script&quot;),e=t.length;e--;)if(t[e].getAttribute(&quot;cf-hash&quot;))return t[e]}();if(t&amp;&amp;t.previousSibling){var e,r,n,i,c=t.previousSibling,a=c.getAttribute(&quot;data-cfemail&quot;);if(a){for(e=&quot;&quot;,r=parseInt(a.substr(0,2),16),n=2;a.length-n;n+=2)i=parseInt(a.substr(n,2),16)^r,e+=String.fromCharCode(i);e=document.createTextNode(e),c.parentNode.replaceChild(e,c)}}}catch(u){}}();/* ]]&gt; */&lt;/script&gt;\nFormat settings, CABAC                   : Yes\nFormat settings, ReFrames                : 3 frames\nCodec ID                                 : avc1\nCodec ID/Info                            : Advanced Video Coding\nDuration                                 : 2h 0mn\nBit rate                                 : 2 672 Kbps\nWidth                                    : 1 920 pixels\nHeight                                   : 800 pixels\nDisplay aspect ratio                     : 2.40:1\nFrame rate mode                          : Constant\nFrame rate                               : 23.976 fps\nColor space                              : YUV\nChroma subsampling                       : 4:2:0\nBit depth                                : 8 bits\nScan type                                : Progressive\nBits/(Pixel*Frame)                       : 0.073\nStream size                              : 2.24 GiB (93%)\n\n\nAudio\n\nID                                       : 2\nFormat                                   : AAC\nFormat/Info                              : Advanced Audio Codec\nFormat profile                           : LC\nCodec ID                                 : 40\nDuration                                 : 2h 0mn\nDuration_LastFrame                       : -8ms\nBit rate mode                            : Constant\nBit rate                                 : 192 Kbps\nChannel(s)                               : 2 channels\nChannel positions                        : Front: L R\nSampling rate                            : 48.0 KHz\nCompression mode                         : Lossy\nStream size                              : 165 MiB (7%)\n\n\nPoster:\n\n &lt;a href=&quot;\nhttp://i.imgur.com/BB5tuQn.jpg&quot; rel=&quot;nofollow&quot; target=&quot;_NEW&quot;&gt;\nhttp://i.imgur.com/BB5tuQn.jpg&lt;/a&gt;\n\n\nScreenshots:\n\n &lt;a href=&quot;\nhttp://i.imgur.com/x8uob66.jpg&quot; rel=&quot;nofollow&quot; target=&quot;_NEW&quot;&gt;\nhttp://i.imgur.com/x8uob66.jpg&lt;/a&gt;\n\n\nSEED AND ENJOY!",
  "parsed": {
    "xt": "urn:btih:3219cea93c91b8a15996949b8dd7763a667b40ef",
    "dn": "Fifty Shades of Grey 2015 1080p HDRip HC x264 AAC-CPG",
    "tr": [
      "udp://exodus.desync.com:6969",
      "udp://open.demonii.com:1337",
      "udp://tracker.coppersurfer.tk:6969",
      "udp://tracker.openbittorrent.com:80"
    ],
    "infoHash": "3219cea93c91b8a15996949b8dd7763a667b40ef",
    "infoHashBuffer": {
      "type": "Buffer",
      "data": [
        50,
        25,
        206,
        169,
        60,
        145,
        184,
        161,
        89,
        150,
        148,
        155,
        141,
        215,
        118,
        58,
        102,
        123,
        64,
        239
      ]
    },
    "name": "Fifty Shades of Grey 2015 1080p HDRip HC x264 AAC-CPG",
    "announce": [
      "udp://exodus.desync.com:6969",
      "udp://open.demonii.com:1337",
      "udp://tracker.coppersurfer.tk:6969",
      "udp://tracker.openbittorrent.com:80"
    ],
    "urlList": []
  },
  "previous": 437,
  "peers": 196,
  "last_updated": "2016-12-26T20:45:18.182Z"
}